<?xml version="1.0" encoding="utf-8"?>
<!-- Generator: Adobe Illustrator 25.2.1, SVG Export Plug-In . SVG Version: 6.00 Build 0)  -->
<svg version="1.1" id="Ebene_1" xmlns="http://www.w3.org/2000/svg" xmlns:xlink="http://www.w3.org/1999/xlink" x="0px" y="0px"
	 viewBox="0 0 113.7 69.3" style="enable-background:new 0 0 113.7 69.3;" xml:space="preserve">
<style type="text/css">
	.st0{fill:#FF6F00;}
	.st1{fill:#013367;}
	.st2{fill:#3599FF;}
	.st3{opacity:0.5;}
</style>
<g>
	<g>
	</g>
	<g>
		<g>
			<path class="st0" d="M73.7,10.5c-6.9,0-12.6,5.6-12.6,12.6c0,2.4,0.7,4.7,2,6.7L59,36l8.5-1.9c1.8,1,3.8,1.6,6.2,1.6
				c6.9,0,12.5-5.6,12.5-12.5S80.7,10.5,73.7,10.5z M73.7,32.9c-2,0-3.7-0.5-5.2-1.4l-0.5-0.3l-2.9,0.6l1.3-2L65.9,29
				c-1.3-1.7-2-3.7-2-5.9c0-5.4,4.4-9.8,9.8-9.8s9.8,4.4,9.8,9.8C83.5,28.5,79.1,32.9,73.7,32.9z"/>
		</g>
	</g>
	<g>
		<g>
			<path class="st0" d="M71.3,22.6v1.1c0,0.2-0.1,0.3-0.2,0.4c-0.1,0.1-0.3,0.2-0.4,0.2h-1.3c-0.2,0-0.3-0.1-0.4-0.1
				c-0.1-0.1-0.2-0.3-0.2-0.4v-1.1c0-0.2,0.1-0.3,0.2-0.4c0.1-0.1,0.3-0.1,0.4-0.1h1.3c0.2,0,0.3,0.1,0.4,0.1
				C71.2,22.3,71.3,22.4,71.3,22.6z"/>
		</g>
		<g>
			<path class="st0" d="M74.8,22.6v1.1c0,0.2-0.1,0.3-0.2,0.4c-0.1,0.1-0.3,0.2-0.4,0.2h-1.3c-0.2,0-0.3-0.1-0.4-0.1
				c-0.1-0.1-0.2-0.3-0.2-0.4v-1.1c0-0.2,0.1-0.3,0.2-0.4c0.1-0.1,0.3-0.1,0.4-0.1h1.3c0.2,0,0.3,0.1,0.4,0.1
				C74.7,22.3,74.8,22.4,74.8,22.6z"/>
		</g>
		<g>
			<path class="st0" d="M78.3,22.6v1.1c0,0.2-0.1,0.3-0.2,0.4c-0.1,0.1-0.3,0.2-0.4,0.2h-1.3c-0.2,0-0.3-0.1-0.4-0.1
				c-0.1-0.1-0.2-0.3-0.2-0.4v-1.1c0-0.2,0.1-0.3,0.2-0.4c0.1-0.1,0.3-0.1,0.4-0.1h1.3c0.2,0,0.3,0.1,0.4,0.1
				C78.2,22.3,78.3,22.4,78.3,22.6z"/>
		</g>
	</g>
	<g>
		<g>
			<path class="st1" d="M101.7,53.2c1.3-2,1.9-4.3,1.9-6.7c0-6.9-5.6-12.6-12.5-12.6s-12.5,5.6-12.5,12.6S84.2,59,91.1,59
				c2.3,0,4.4-0.5,6.2-1.6l8.5,1.9L101.7,53.2z M99.7,55.1l-2.9-0.6l-0.5,0.3c-1.5,1-3.1,1.4-5.2,1.4c-5.4,0-9.8-4.4-9.8-9.8
				s4.4-9.8,9.8-9.8s9.8,4.4,9.8,9.8c0,2.1-0.7,4.2-2,5.9l-0.6,0.8L99.7,55.1z"/>
		</g>
	</g>
	<g>
		<g>
			<path class="st1" d="M96.2,46V47c0,0.2-0.1,0.3-0.2,0.4c-0.1,0.1-0.3,0.1-0.4,0.1h-1.3c-0.2,0-0.4-0.1-0.4-0.2
				c-0.1-0.1-0.2-0.3-0.2-0.4V46c0-0.2,0.1-0.3,0.2-0.4c0.1-0.1,0.3-0.1,0.4-0.1h1.3c0.2,0,0.3,0.1,0.4,0.1
				C96.1,45.6,96.2,45.8,96.2,46z"/>
		</g>
		<g>
			<path class="st1" d="M92.7,46V47c0,0.2-0.1,0.3-0.2,0.4c-0.1,0.1-0.3,0.1-0.4,0.1h-1.3c-0.2,0-0.4-0.1-0.4-0.2
				c-0.1-0.1-0.2-0.3-0.2-0.4V46c0-0.2,0.1-0.3,0.2-0.4c0.1-0.1,0.3-0.1,0.4-0.1H92c0.2,0,0.3,0.1,0.4,0.1
				C92.6,45.6,92.7,45.8,92.7,46z"/>
		</g>
		<g>
			<path class="st1" d="M89.2,46V47c0,0.2-0.1,0.3-0.2,0.4c-0.1,0.1-0.3,0.1-0.4,0.1h-1.3c-0.2,0-0.4-0.1-0.4-0.2
				c-0.1-0.1-0.2-0.3-0.2-0.4V46c0-0.2,0.1-0.3,0.2-0.4c0.1-0.1,0.3-0.1,0.4-0.1h1.3c0.2,0,0.3,0.1,0.4,0.1
				C89.1,45.6,89.2,45.8,89.2,46z"/>
		</g>
	</g>
	<g>
		<path class="st2" d="M20.3,31.2c-1,1.9-2.4,2.8-4.4,2.8s-3.6-0.8-5-2.3c-1.4-1.6-2.1-3.6-2.1-6s0.7-4.4,2-5.9
			c1.3-1.5,2.9-2.2,4.9-2.2c1.9,0,3.4,0.8,4.4,2.3v-8.3h3.8v22h-3.1L20.3,31.2z M16.4,21c-1.1,0-2,0.4-2.7,1.3
			c-0.7,0.9-1.1,2-1.1,3.5c0,1.5,0.4,2.6,1.1,3.5c0.7,0.9,1.6,1.3,2.8,1.3c0.9,0,1.7-0.4,2.5-1.1c0.7-0.7,1.1-1.7,1.1-2.8v-2
			c0-1.1-0.4-2-1.1-2.7C18.3,21.4,17.4,21,16.4,21z"/>
		<path class="st2" d="M34,17.6c1,0,2,0.2,2.9,0.5c0.9,0.3,1.7,0.8,2.4,1.5c1.5,1.5,2.2,3.6,2.2,6.2c0,2.6-0.7,4.7-2.2,6.1
			c-1.3,1.4-3.1,2-5.3,2c-2.2,0-4-0.7-5.4-2c-1.5-1.5-2.2-3.5-2.2-6.1c0-2.7,0.7-4.7,2.2-6.2C30,18.3,31.8,17.6,34,17.6z M37.8,25.8
			c0-1.6-0.3-2.9-1-3.7c-0.6-0.8-1.5-1.2-2.7-1.2c-1.1,0-2.1,0.4-2.8,1.2c-0.7,0.8-1.1,2.1-1.1,3.7c0,1.6,0.3,2.9,1,3.7
			c0.7,0.8,1.5,1.2,2.7,1.2c1.1,0,2.1-0.4,2.8-1.2C37.4,28.7,37.8,27.5,37.8,25.8z"/>
		<path class="st2" d="M51.3,17.6c1,0,1.9,0.2,2.6,0.5c0.8,0.3,1.4,0.8,2,1.3c1.1,1,1.7,2.3,1.9,3.9L54,23.4
			c-0.2-0.7-0.5-1.2-0.9-1.7c-0.5-0.4-1-0.7-1.6-0.7c-0.6,0-1.1,0.1-1.5,0.3c-0.4,0.2-0.8,0.5-1.1,0.8c-0.7,0.9-1.1,2.1-1.1,3.7
			c0,1.6,0.3,2.8,1,3.6c0.7,0.8,1.5,1.2,2.5,1.2c1,0,1.7-0.2,2.1-0.7c0.4-0.5,0.7-1.1,0.7-1.9h3.8c0,1.7-0.6,3.1-1.7,4.3
			c-1.2,1.2-2.8,1.7-4.8,1.7c-2,0-3.8-0.7-5.2-2.2c-1.5-1.6-2.2-3.6-2.2-6c0-2.5,0.7-4.5,2.2-6.1C47.5,18.4,49.2,17.6,51.3,17.6z"/>
	</g>
	<g class="st3">
		<path class="st2" d="M38.1,55.1c-1,1.9-2.4,2.8-4.4,2.8s-3.6-0.8-5-2.3c-1.4-1.6-2.1-3.6-2.1-6s0.7-4.4,2-5.9
			c1.3-1.5,2.9-2.2,4.9-2.2c1.9,0,3.4,0.8,4.4,2.3v-8.3h3.8v22h-3.1L38.1,55.1z M34.1,44.9c-1.1,0-2,0.4-2.7,1.3
			c-0.7,0.9-1.1,2-1.1,3.5c0,1.5,0.4,2.6,1.1,3.5c0.7,0.9,1.6,1.3,2.8,1.3c0.9,0,1.7-0.4,2.5-1.1c0.7-0.7,1.1-1.7,1.1-2.8v-2
			c0-1.1-0.4-2-1.1-2.7C36.1,45.2,35.2,44.9,34.1,44.9z"/>
		<path class="st2" d="M51.8,41.5c1,0,2,0.2,2.9,0.5c0.9,0.3,1.7,0.8,2.4,1.5c1.5,1.5,2.2,3.6,2.2,6.2c0,2.6-0.7,4.7-2.2,6.1
			c-1.3,1.4-3.1,2-5.3,2c-2.2,0-4-0.7-5.4-2c-1.5-1.5-2.2-3.5-2.2-6.1c0-2.7,0.7-4.7,2.2-6.2C47.7,42.2,49.5,41.5,51.8,41.5z
			 M55.5,49.7c0-1.6-0.3-2.9-1-3.7c-0.6-0.8-1.5-1.2-2.7-1.2c-1.1,0-2.1,0.4-2.8,1.2c-0.7,0.8-1.1,2.1-1.1,3.7c0,1.6,0.3,2.9,1,3.7
			c0.7,0.8,1.5,1.2,2.7,1.2c1.1,0,2.1-0.4,2.8-1.2C55.2,52.6,55.5,51.3,55.5,49.7z"/>
		<path class="st2" d="M69.1,41.5c1,0,1.9,0.2,2.6,0.5c0.8,0.3,1.4,0.8,2,1.3c1.1,1,1.7,2.3,1.9,3.9l-3.8,0.1
			c-0.2-0.7-0.5-1.2-0.9-1.7c-0.5-0.4-1-0.7-1.6-0.7c-0.6,0-1.1,0.1-1.5,0.3c-0.4,0.2-0.8,0.5-1.1,0.8c-0.7,0.9-1.1,2.1-1.1,3.7
			c0,1.6,0.3,2.8,1,3.6c0.7,0.8,1.5,1.2,2.5,1.2c1,0,1.7-0.2,2.1-0.7c0.4-0.5,0.7-1.1,0.7-1.9h3.8c0,1.7-0.6,3.1-1.7,4.3
			c-1.2,1.2-2.8,1.7-4.8,1.7c-2,0-3.8-0.7-5.2-2.2c-1.5-1.6-2.2-3.6-2.2-6c0-2.5,0.7-4.5,2.2-6.1C65.3,42.2,67,41.5,69.1,41.5z"/>
	</g>
</g>
</svg>
